Video

ID : 0
Format : MPEG-4 Visual
Format profile : Advanced Simple@L5
Format settings, BVOP : 2
Format settings, QPel : No
Format settings, GMC : No warppoints
Format settings, Matrix : Default (H.263)
Muxing mode : Packed bitstream
Codec ID : XVID
Codec ID/Hint : XviD
Duration : 2h 0mn
Bit rate : 1 494 Kbps
Width : 720 pixels
Height : 336 pixels
Display aspect ratio : 2.2:1
Frame rate : 24.000 fps
Color space : YUV
Chroma subsampling : 4:2:0
Bit depth : 8 bits
Scan type : Progressive
Compression mode : Lossy
Bits/(Pixel*Frame) : 0.257
Stream size : 1.26 GiB (92%)
Writing library : XviD 57

Audio

ID : 1
Format : MPEG Audio
Format version : Version 1
Format profile : Layer 3
Codec ID : 55
Codec ID/Hint : MP3
Duration : 2h 0mn
Bit rate mode : Constant
Bit rate : 128 Kbps
Channel(s) : 2 channels
Sampling rate : 44.1 KHz
Compression mode : Lossy
Stream size : 111 MiB (8%)
Alignment : Split accross interleaves
Interleave, duration : 42 ms (1.00 video frame)
Interleave, preload duration : 500 ms
Writing library : LAME3.98.4
 
http://img259.imageshack.us/img259/7659/vlcsnap2011121213h49m58.png 
http://img266.imageshack.us/img266/521/vlcsnap2011121213h52m36.png 
http://img638.imageshack.us/img638/9080/vlcsnap2011121213h52m18.png 
http://img690.imageshack.us/img690/8213/vlcsnap2011121213h47m21.png
